<svg height="496pt" viewBox="0 0 496 496" width="496pt" xmlns="http://www.w3.org/2000/svg"><path d="m472 136h-96v32h16v-16h80c4.414062 0 8 3.59375 8 8v104c0 4.40625-3.585938 8-8 8h-8v-8c0-13.230469-10.769531-24-24-24h-8.808594c-3.71875-18.230469-19.871094-32-39.191406-32h-216v-104c0-10.414062-6.710938-19.214844-16-22.527344v-33.472656h-16v-16c0-8.824219 7.175781-16 16-16h152c8.824219 0 16 7.175781 16 16s-7.175781 16-16 16h-56c-13.230469 0-24 10.769531-24 24v56c0 13.230469 10.769531 24 24 24h40v-32h-16v16h-24c-4.414062 0-8-3.59375-8-8v-56c0-4.40625 3.585938-8 8-8h56c17.648438 0 32-14.351562 32-32s-14.351562-32-32-32h-152c-17.648438 0-32 14.351562-32 32v16h-16v33.472656c-9.289062 3.3125-16 12.113282-16 22.527344v104h-24c-19.3125 0-35.472656 13.769531-39.191406 32h-8.808594c-13.230469 0-24 10.769531-24 24v32c0 13.230469 10.769531 24 24 24h8v136c0 22.054688 17.945312 40 40 40h320c19.3125 0 35.472656-13.769531 39.191406-32h8.808594c13.230469 0 24-10.769531 24-24v-32c0-13.230469-10.769531-24-24-24h-8v-64h8c13.230469 0 24-10.769531 24-24v-8h8c13.230469 0 24-10.769531 24-24v-104c0-13.230469-10.769531-24-24-24zm-448 168c-4.414062 0-8-3.59375-8-8v-32c0-4.40625 3.585938-8 8-8h8v48zm107.574219 93.265625-14.628907-29.265625h38.109376l-14.628907 29.265625c-1.691406 3.382813-7.160156 3.375-8.851562 0zm28.425781-45.265625h-48v-208h48zm-42.734375 52.425781c3.574219 7.132813 10.75 11.574219 18.734375 11.574219h112c13.230469 0 24-10.769531 24-24s-10.769531-24-24-24h-16c-4.414062 0-8-3.59375-8-8s3.585938-8 8-8h48c13.230469 0 24-10.769531 24-24s-10.769531-24-24-24h-16c-4.414062 0-8-3.59375-8-8s3.585938-8 8-8h104v-16h-104c-13.230469 0-24 10.769531-24 24s10.769531 24 24 24h16c4.414062 0 8 3.59375 8 8s-3.585938 8-8 8h-48c-13.230469 0-24 10.769531-24 24s10.769531 24 24 24h16c4.414062 0 8 3.59375 8 8s-3.585938 8-8 8h-91.054688l19.054688-38.113281v-105.886719h208v192h-304v-192h16v105.886719zm26.734375-340.425781v16h-16v-16zm-24 32h32c4.414062 0 8 3.59375 8 8v24h-48v-24c0-4.40625 3.585938-8 8-8zm296 360c0 13.230469-10.769531 24-24 24h-320c-13.230469 0-24-10.769531-24-24v-208c0-13.230469 10.769531-24 24-24h24v16h-16c-8.824219 0-16 7.175781-16 16v192c0 8.824219 7.175781 16 16 16h304c8.824219 0 16-7.175781 16-16v-192c0-8.824219-7.175781-16-16-16h-208v-16h216c13.230469 0 24 10.769531 24 24zm24-8h-8v-16h16v8c0 4.40625-3.585938 8-8 8zm0-48c4.414062 0 8 3.59375 8 8v8h-16v-16zm8-104c0 4.40625-3.585938 8-8 8h-8v-48h8c4.414062 0 8 3.59375 8 8zm0 0"/><path d="m344 120h16v48h-16zm0 0"/><path d="m312 120h16v48h-16zm0 0"/><path d="m328 432c22.054688 0 40-17.945312 40-40s-17.945312-40-40-40-40 17.945312-40 40 17.945312 40 40 40zm0-64c13.230469 0 24 10.769531 24 24s-10.769531 24-24 24-24-10.769531-24-24 10.769531-24 24-24zm0 0"/></svg>