<svg height="496pt" viewBox="0 0 496 496" width="496pt" xmlns="http://www.w3.org/2000/svg"><path d="m441.601562 131.199219c-13.015624 17.351562-33.449218 27.863281-55.050781 28.648437l-1.335937-1.039062c-44.023438-34.242188-82.085938-75.066406-113.214844-121.3125v-37.496094h-48v37.496094c-31.128906 46.246094-69.191406 87.070312-113.214844 121.320312l-1.328125 1.039063c-21.601562-.785157-42.03125-11.296875-55.050781-28.648438l-2.40625-3.207031h-20v40c0 39.695312 32.296875 72 72 72h8v16h-48v48h48v112h-64v64h-16v16h432v-16h-16v-64h-64v-112h48v-48h-48v-16h8c39.703125 0 72-32.304688 72-72v-40h-20zm-323.839843 44.800781-3.960938 15.832031c-5.113281-.167969-10.167969-.664062-15.121093-1.574219l3.703124-14.816406c3.183594.351563 6.386719.558594 9.617188.558594zm16.476562 0h15.515625l-4 16h-15.515625zm113.761719-90.488281c19.71875 27.054687 42.207031 51.976562 66.96875 74.488281h-133.9375c24.753906-22.511719 47.242188-47.433594 66.96875-74.488281zm-81.761719 90.488281h15.515625l-4 16h-15.515625zm32 0h15.515625l-4 16h-15.515625zm32 0h9.761719v16h-13.761719zm25.761719 0h9.761719l4 16h-13.761719zm30.238281 16-4-16h15.515625l4 16zm32 0-4-16h15.515625l4 16zm32 0-4-16h15.515625l4 16zm31.960938-.167969-3.960938-15.832031h5.761719c3.230469 0 6.433594-.207031 9.617188-.558594l3.703124 14.816406c-4.953124.910157-10.007812 1.398438-15.121093 1.574219zm-20.917969-31.832031h-22.242188c-28.054687-23.664062-53.214843-50.574219-75.117187-80h8.078125v-14.761719c25.847656 35.097657 55.761719 66.851563 89.28125 94.761719zm-121.28125-144h16v48h-16zm-16 49.238281v14.761719h8.089844c-21.914063 29.425781-47.074219 56.335938-75.128906 80h-22.234376c33.519532-27.921875 63.425782-59.664062 89.273438-94.761719zm-137.289062 106.953125-3.464844 13.855469c-12.988282-4.621094-24.949219-11.894531-35.246094-21.574219v-16.082031c10.617188 11.210937 24.046875 19.371094 38.710938 23.800781zm-6.710938 115.808594v-16h32v16zm48-48h16v176h-16zm144 176v64h-48v-64h-64v-112h176v112zm32 16v48h-16v-48zm-96 0v48h-16v-48zm128-144h-176v-48h176zm-208 176v-32h16v32h16v-32h16v48h-80v-48h16v32zm-64-32h16v48h-16zm368 48h-16v-48h16zm-32-48v48h-80v-48h16v32h16v-32h16v32h16v-32zm16-160v16h-32v-16zm-48 144h-16v-176h16zm24-192h-288c-23.816406 0-44.160156-14.976562-52.238281-35.992188 19.199219 12.992188 41.804687 19.992188 65.496093 19.992188h261.484376c23.699218 0 46.296874-7 65.496093-19.992188-8.078125 21.015626-28.421875 35.992188-52.238281 35.992188zm56-59.527344c-10.296875 9.679688-22.257812 16.953125-35.246094 21.574219l-3.464844-13.855469c14.664063-4.429687 28.09375-12.589844 38.710938-23.808594zm0 0"/><path d="m240 128h16v16h-16zm0 0"/><path d="m480 480h16v16h-16zm0 0"/><path d="m0 480h16v16h-16zm0 0"/><path d="m192 256h16v16h-16zm0 0"/><path d="m240 256h16v16h-16zm0 0"/><path d="m288 256h16v16h-16zm0 0"/></svg>