<?xml version="1.0" encoding="iso-8859-1"?>
<!-- Generator: Adobe Illustrator 19.0.0, SVG Export Plug-In . SVG Version: 6.00 Build 0)  -->
<svg version="1.1" id="Capa_1" xmlns="http://www.w3.org/2000/svg" xmlns:xlink="http://www.w3.org/1999/xlink" x="0px" y="0px"
	 viewBox="0 0 512 512" style="enable-background:new 0 0 512 512;" xml:space="preserve">
<g>
	<g transform="translate(1 1)">
		<circle style="fill:#A4C2F7;" cx="255" cy="255" r="247.467"/>
		<circle style="fill:#E3E7F2;" cx="255" cy="255" r="213.333"/>
		<g>
			<path style="fill:#A4C2F7;" d="M152.6,391.533l-54.699,54.699c-12.46-10.241-23.892-21.673-34.133-34.133l54.699-54.699"/>
			<path style="fill:#A4C2F7;" d="M357.4,118.467l30.293-30.293l24.405-24.405c12.46,10.241,23.892,21.673,34.133,34.133
				l-24.405,24.405L391.533,152.6"/>
			<path style="fill:#A4C2F7;" d="M391.533,357.4l54.699,54.699c-10.241,12.46-21.673,23.892-34.133,34.133L357.4,391.533"/>
			<path style="fill:#A4C2F7;" d="M118.467,152.6l-30.293-30.293L63.768,97.901c10.241-12.46,21.673-23.892,34.133-34.133
				l24.405,24.405l30.293,30.293"/>
		</g>
		<path style="fill:#E3E7F2;" d="M255,92.867L255,92.867c89.544,0,162.133,72.59,162.133,162.133l0,0
			c0,89.544-72.59,162.133-162.133,162.133l0,0c-89.544,0-162.133-72.59-162.133-162.133l0,0
			C92.867,165.456,165.456,92.867,255,92.867z"/>
		<path style="fill:#FFFFFF;" d="M105.145,80.507c0.32-0.322,0.64-0.643,0.962-0.962c5.475-5.445,11.193-10.632,17.155-15.56
			c0.083-0.069,0.156-0.149,0.24-0.217l0.016,0.016C164.357,30.129,214.948,10.52,267.8,7.861c-4.24-0.216-8.506-0.325-12.8-0.327
			C197.692,7.449,142.145,27.34,97.918,63.784l-0.016-0.016c-0.083,0.068-0.156,0.148-0.24,0.217
			c-5.962,4.917-11.681,10.103-17.155,15.56c-0.322,0.32-0.643,0.641-0.962,0.962c-5.446,5.476-10.634,11.196-15.564,17.159
			c-0.067,0.082-0.146,0.153-0.213,0.235l0.016,0.016c-75.001,91.293-75.001,222.872,0,314.165l-0.016,0.016
			c0.067,0.082,0.146,0.153,0.213,0.235c4.92,5.967,10.111,11.69,15.573,17.17c0.314,0.315,0.626,0.628,0.941,0.941
			c5.479,5.45,11.203,10.641,17.171,15.574c0.082,0.067,0.153,0.146,0.235,0.213l0.016-0.016
			c44.228,36.444,99.774,56.335,157.082,56.25c4.293,0,8.56-0.109,12.8-0.327c-52.853-2.659-103.444-22.269-144.282-55.924
			l-0.016,0.016c-0.082-0.067-0.154-0.146-0.235-0.213c-5.967-4.921-11.691-10.112-17.171-15.574
			c-0.315-0.314-0.628-0.626-0.941-0.941c-5.449-5.478-10.641-11.202-15.573-17.17c-0.067-0.082-0.146-0.153-0.213-0.235
			l0.016-0.016c-75.001-91.293-75.001-222.872,0-314.165l-0.016-0.016c0.067-0.082,0.146-0.153,0.213-0.235
			C94.499,91.703,99.687,85.983,105.145,80.507z"/>
	</g>
	<g>
		<path style="fill:#FFFFFF;" d="M0,256c0.13-38.401,8.85-76.287,25.521-110.881c5.172-10.795,11.05-21.237,17.597-31.258
			c3.395-4.92,7.106-9.627,10.652-14.444c3.495-4.859,7.337-9.458,11.496-13.761c15.856-17.974,34.251-33.537,54.603-46.197
			c20.239-12.85,42.222-22.721,65.272-29.309C208.211,3.66,232.037,0.247,256,0v17.067c-22.367,0.247-44.604,3.436-66.139,9.484
			c-21.507,6.144-42.016,15.355-60.896,27.348c-19.005,11.812-36.178,26.342-50.973,43.129c-3.895,4.007-7.483,8.301-10.734,12.846
			c-3.302,4.503-6.781,8.887-9.955,13.476c-6.102,9.357-11.583,19.104-16.408,29.179C25.337,184.811,17.196,220.164,17.067,256H0z"
			/>
		<g>
			<path style="fill:#428DFF;" d="M280.767,165.558l7.645-4.683c2.599-1.591,4.152-4.449,4.073-7.495s-1.777-5.82-4.454-7.275
				c-2.678-1.455-5.928-1.371-8.528,0.22l-27.958,17.117c-0.175,0.107-0.266,0.297-0.431,0.416
				c-0.679,0.481-1.282,1.062-1.788,1.724c-0.686,1.243-1.276,2.536-1.764,3.869c-0.028,0.187,0.054,0.365,0.038,0.552
				c-0.019,0.23-0.134,0.428-0.134,0.664c0.052,0.46,0.144,0.915,0.275,1.359c0.419,1.529,1.048,2.992,1.867,4.35l22.608,25.55
				c3.132,3.499,8.502,3.811,12.019,0.698c3.516-3.113,3.858-8.481,0.764-12.014l-7.288-8.233
				c34.919,10.344,57.754,43.81,54.652,80.096s-31.285,65.392-67.453,69.659s-70.351-17.479-81.813-52.047
				c-11.462-34.568,2.957-72.43,34.51-90.616c4.078-2.361,5.469-7.581,3.108-11.659c-2.361-4.078-7.581-5.469-11.659-3.108
				c-38.844,22.321-56.532,68.957-42.261,111.424c14.271,42.467,56.532,68.957,100.973,63.291s78.704-41.912,81.863-86.601
				C352.791,218.125,323.968,177.419,280.767,165.558L280.767,165.558z"/>
			<path style="fill:#428DFF;" d="M12.961,195.445c0.408,0.357,0.868,0.65,1.365,0.867c0.523,0.228,1.062,0.42,1.612,0.572
				c2.199,0.5,4.504,0.182,6.485-0.893c0.938-0.569,1.759-1.313,2.417-2.191c2.005-2.705,2.209-6.344,0.519-9.256
				c-0.551-0.952-1.266-1.799-2.112-2.502c-0.838-0.722-1.809-1.274-2.859-1.623c-2.19-0.669-4.553-0.475-6.605,0.543
				c-1.942,1.214-3.348,3.123-3.933,5.338c-0.557,2.255-0.26,4.636,0.834,6.685l0.979,1.329
				C12.042,194.748,12.479,195.129,12.961,195.445z"/>
			<path style="fill:#428DFF;" d="M453.825,93.707c-0.168-0.292-0.355-0.572-0.558-0.841c-0.093-0.093-0.219-0.121-0.315-0.209
				c-10.146-12.212-21.396-23.463-33.609-33.609c-0.088-0.096-0.116-0.222-0.209-0.315c-0.268-0.203-0.549-0.39-0.841-0.558
				C372.598,20.515,315.214-0.055,256,0c-23.963,0.247-47.789,3.66-70.858,10.149c-23.051,6.588-45.034,16.459-65.273,29.309
				c-8.486,5.432-16.674,11.317-24.527,17.63c-0.916,0.397-1.755,0.954-2.476,1.645c-0.174,0.174-0.236,0.405-0.392,0.59
				c-9.799,7.991-18.901,16.8-27.208,26.332c-2.156,2.302-4.265,4.644-6.292,7.051c-0.073,0.068-0.17,0.089-0.241,0.16
				c-0.259,0.331-0.492,0.682-0.697,1.05c-1.47,1.794-2.938,3.59-4.267,5.5c-3.546,4.817-7.257,9.524-10.652,14.444
				c-6.547,10.021-12.425,20.464-17.597,31.259l-3.828,7.957c-0.976,2.096-1.04,4.503-0.175,6.648
				c0.865,2.145,2.58,3.835,4.737,4.668c4.282,1.624,9.093-0.309,11.061-4.444l3.58-7.419c4.825-10.075,10.306-19.822,16.408-29.178
				c2.689-3.887,5.598-7.625,8.432-11.414l12.239,12.237c-58.454,78.165-58.454,185.49,0,263.655l-12.349,12.348
				C34.079,358.736,17.019,308.081,17.067,256l0.841-16.464l0.432-8.23l1.253-8.143c0.567-4.603-2.593-8.835-7.166-9.6
				c-2.262-0.364-4.574,0.204-6.41,1.574c-1.836,1.37-3.038,3.426-3.332,5.697l-1.322,8.728l-0.482,8.81L0,256
				c-0.055,59.214,20.515,116.598,58.175,162.293c0.168,0.292,0.355,0.572,0.558,0.841c0.093,0.093,0.219,0.121,0.315,0.209
				c10.146,12.212,21.396,23.463,33.609,33.609c0.088,0.096,0.116,0.222,0.209,0.315c0.268,0.203,0.549,0.39,0.841,0.558
				c94.293,77.567,230.292,77.567,324.586,0c0.292-0.168,0.572-0.355,0.841-0.558c0.093-0.093,0.121-0.219,0.209-0.315
				c12.212-10.146,23.463-21.396,33.609-33.609c0.096-0.088,0.222-0.116,0.315-0.209c0.203-0.268,0.39-0.549,0.558-0.841
				C531.392,324,531.392,188,453.825,93.707z M446.376,400.176l-12.349-12.348c58.454-78.165,58.454-185.49,0-263.655l12.349-12.348
				C511.119,197.039,511.119,314.962,446.376,400.176z M256,426.667c33.971,0.04,67.172-10.118,95.306-29.157l24.332,24.331
				c-71.301,51.946-167.976,51.946-239.276,0l24.332-24.331C188.828,416.549,222.029,426.707,256,426.667z M256,409.6
				c-84.831,0-153.6-68.769-153.6-153.6S171.169,102.4,256,102.4S409.6,171.169,409.6,256
				C409.503,340.791,340.791,409.503,256,409.6z M256,85.333c-33.971-0.04-67.172,10.118-95.306,29.157L136.362,90.16
				c71.301-51.947,167.975-51.947,239.276,0l-24.332,24.331C323.172,95.451,289.971,85.294,256,85.333z M426.667,256
				c0.04-33.973-10.118-67.176-29.16-95.311l24.332-24.33c51.948,71.302,51.948,167.98,0,239.282l-24.332-24.33
				C416.548,323.176,426.707,289.973,426.667,256z M435.504,98.563l-48.375,48.371c-6.672-8.008-14.059-15.394-22.067-22.066
				l48.375-48.372C421.262,83.367,428.633,90.738,435.504,98.563z M128.966,53.899c18.879-11.994,39.389-21.205,60.895-27.348
				c21.535-6.048,43.772-9.237,66.139-9.484c52.081-0.048,102.735,17.012,144.176,48.557l-12.351,12.349
				c-78.164-58.453-185.486-58.453-263.65,0l-12.211-12.21C117.5,61.611,123.142,57.606,128.966,53.899L128.966,53.899z
				 M77.992,97.028c6.378-7.309,13.272-14.15,20.631-20.471l48.315,48.311c-8.009,6.672-15.395,14.058-22.067,22.066L76.555,98.621
				C77.041,98.096,77.502,97.55,77.992,97.028z M51.2,256c-0.125-43.018,13.529-84.946,38.961-119.641l24.332,24.33
				c-38.88,57.593-38.88,133.029,0,190.622l-24.332,24.33C64.729,340.946,51.075,299.018,51.2,256z M76.496,413.438l48.375-48.371
				c6.672,8.008,14.059,15.394,22.067,22.066l-48.375,48.372C90.738,428.633,83.367,421.262,76.496,413.438z M111.825,446.376
				l12.351-12.349c78.164,58.453,185.486,58.453,263.65,0l12.351,12.349C314.961,511.119,197.039,511.119,111.825,446.376z
				 M413.438,435.504l-48.375-48.372c8.009-6.672,15.395-14.058,22.067-22.066l48.375,48.371
				C428.633,421.262,421.262,428.633,413.438,435.504L413.438,435.504z"/>
		</g>
	</g>
</g>
<g>
</g>
<g>
</g>
<g>
</g>
<g>
</g>
<g>
</g>
<g>
</g>
<g>
</g>
<g>
</g>
<g>
</g>
<g>
</g>
<g>
</g>
<g>
</g>
<g>
</g>
<g>
</g>
<g>
</g>
</svg>
