<svg width="100" height="100" viewBox="0 0 100 100" fill="none" xmlns="http://www.w3.org/2000/svg">
<g clip-path="url(#clip0)">
<path d="M98.695 56.7C91.9666 52.1347 86.9479 58.4347 66.6628 74.9113L47.9483 74.9148C47.0952 74.9148 46.4027 74.2224 46.4027 73.3693C46.4027 71.9129 47.038 71.3454 47.9483 71.3454H59.5132C63.4575 71.3454 67.8729 68.7754 67.8729 64.2065C67.8729 59.3521 63.4575 57.0676 59.5132 57.0676C52.2637 57.0676 47.0452 57.5852 43.6756 55.7826C40.8201 54.3227 37.5291 53.4946 34.0167 53.4946C28.12 53.4946 22.8408 55.8469 19.2214 59.5555L0 78.4807L21.4166 99.8973L28.5555 92.7584H64.7032C68.3012 92.7584 71.7743 91.4378 74.462 89.0498L98.9377 61.5937C100.433 60.2658 100.348 57.8244 98.695 56.7ZM71.9456 86.5012C69.9289 88.2324 67.3624 89.1819 64.7032 89.1819C51.7925 89.1819 40.0884 89.1819 27.0778 89.1819C25.2038 91.0558 23.3191 92.9405 21.4166 94.843L5.0686 78.495L21.7771 62.0434C24.8647 58.8809 29.3265 57.0641 34.0167 57.0641C36.8437 57.0641 39.6243 57.7173 41.9909 58.9237C45.9993 61.069 50.2684 60.6299 59.5132 60.6299C59.5596 60.6299 64.3034 60.6692 64.3034 64.1994C64.3034 66.6337 61.4443 67.7688 59.5132 67.7688H47.9483C45.264 67.7688 42.8333 69.7641 42.8333 73.3621C42.8333 76.1891 45.1213 78.4771 47.9483 78.4771C52.2923 78.4771 63.9679 78.4736 67.93 78.4736C89.2538 61.1511 92.0772 57.3282 96.1607 59.3378L71.9456 86.5012Z" fill="#3C78E8"/>
<path d="M72.2753 28.6799C69.2806 28.6799 66.1466 30.3219 64.4119 33.0525C63.1876 34.8015 62.3594 37.9855 62.9555 40.3627C61.7455 41.3157 60.6354 42.3973 59.6467 43.5966C59.9751 35.9723 60.4712 31.1964 61.0459 27.6484C65.2007 27.759 69.1806 24.1075 71.2295 20.1561C75.4236 12.6532 73.4782 4.95746 72.8536 0.103027C69.5769 3.2941 55.267 -0.446665 49.5916 9.27648C47.0858 13.5705 47.8247 19.1567 50.4518 22.6226C51.7297 24.3074 54.3675 25.9136 55.7703 26.5882C54.9778 31.0179 54.3068 37.2359 53.9784 49.2899C53.9249 51.2852 55.5275 52.9378 57.5157 52.9378C57.53 52.9378 57.5443 52.9378 57.5621 52.9378C59.0185 52.92 60.2642 51.9955 60.821 50.6534C61.6705 48.6117 63.0555 46.4986 65.3078 44.5604C67.3709 46.7591 69.7446 47.7693 72.2361 47.7693C75.7555 47.7693 79.4713 45.6705 82.0913 41.1408C84.5364 36.9146 85.6322 35.7974 85.6607 35.7688C82.7302 34.4517 77.783 28.6799 72.2753 28.6799ZM56.2771 22.8082C55.0992 22.1157 53.8463 21.1913 53.2966 20.4667C51.6261 18.2608 50.8409 14.2201 52.6756 11.0755C55.3919 6.41736 61.1994 5.85339 66.3215 5.35367C67.5994 5.22874 68.8166 5.11095 69.9481 4.92891C70.4871 9.05874 70.6762 13.8311 68.0634 18.5142C66.6606 21.227 63.8836 24.1539 60.8817 24.0718C60.8067 18.2643 61.9311 13.16 64.2798 9.23008C60.2428 10.615 57.4586 16.3761 56.2771 22.8082ZM79.0073 39.349C77.2262 42.4294 74.7597 44.1963 72.2397 44.1963C69.8624 44.1963 68.763 43.0184 67.271 41.4228C69.8767 39.1812 73.0035 37.5286 76.5194 36.7826C72.8643 36.7362 69.4341 37.6571 66.4036 39.2455C66.1895 37.9569 66.6963 36.0151 67.428 34.9621C68.531 33.2274 70.5834 32.2422 72.2789 32.2422C75.0488 32.2422 78.4041 34.9978 80.6171 36.6826C80.146 37.4251 79.6105 38.3031 79.0073 39.349Z" fill="#3C78E8"/>
<path d="M50.2101 33.752C48.6181 30.6181 45.602 28.7334 42.0611 28.7334C39.4697 28.7334 36.5999 29.7435 33.8014 32.0173C30.0107 35.0941 28.5865 35.7509 28.5508 35.7652C31.0494 38.2638 33.9014 46.6448 40.13 47.5729C42.7678 48.0512 45.4449 47.3587 47.4438 45.8703C48.9894 44.8209 51.0596 42.1973 51.4023 39.6773C51.6593 37.8033 51.1953 35.4118 50.2101 33.752ZM45.3164 43.0076C44.085 43.9249 42.4537 44.3604 40.6583 44.0427C37.6314 43.593 35.2256 39.3096 33.6015 36.7004C34.3011 36.1792 35.1114 35.551 36.0502 34.7872C38.0526 33.1631 40.13 32.3028 42.0575 32.3028C44.9166 32.3028 46.9227 34.2339 47.6366 36.8467C44.4241 35.9865 40.9903 35.8009 37.5243 36.5826C41.2722 36.5826 44.7667 37.5963 47.8293 39.2989C47.5973 40.6589 46.2623 42.3615 45.3164 43.0076Z" fill="#3C78E8"/>
</g>
<defs>
<clipPath id="clip0">
<rect width="100" height="100" fill="white"/>
</clipPath>
</defs>
</svg>
