<svg width="100" height="100" viewBox="0 0 100 100" fill="none" xmlns="http://www.w3.org/2000/svg">
<path d="M99.9978 46.6678C99.9997 42.2729 98.0724 38.0988 94.7262 35.2497C96.0016 33.1693 96.6728 30.7749 96.6645 28.3348C96.6558 21.574 91.5952 15.8864 84.8813 15.0916C84.9593 14.5093 84.9984 13.9225 84.998 13.335C85.0153 5.98779 79.0733 0.0178788 71.7261 0.00058734C67.4028 -0.00962084 63.3442 2.08181 60.8434 5.60842C56.5993 -0.381074 48.3033 -1.79584 42.3138 2.44826C41.0897 3.31575 40.0212 4.38427 39.1537 5.60842C34.886 -0.37899 26.5728 -1.77314 20.5854 2.4943C16.5698 5.35634 14.4653 10.2036 15.1157 15.0916C8.40183 15.8864 3.34128 21.574 3.33253 28.3348C3.3242 30.7749 3.99544 33.1693 5.27084 35.2497C-1.03428 40.6229 -1.78968 50.0903 3.58357 56.3954C4.10023 57.0018 4.6646 57.566 5.27084 58.0827C3.99482 60.1641 3.32358 62.5595 3.33253 65.0009C3.34087 72.3612 9.30536 78.3257 16.6657 78.334H26.6655V96.6671H21.6656C20.7452 96.6671 19.999 97.4133 19.999 98.3337C19.999 99.2541 20.7452 100 21.6656 100H78.3314C79.2518 100 79.9981 99.2541 79.9981 98.3337C79.9981 97.4133 79.2518 96.6671 78.3314 96.6671H73.3315V78.334H83.3314C90.6917 78.3257 96.6562 72.3612 96.6645 65.0009C96.6728 62.5607 96.0016 60.1664 94.7262 58.086C98.0724 55.2369 99.9995 51.0626 99.9978 46.6678ZM16.6657 74.9857C11.151 74.9803 6.67957 70.5156 6.66582 65.0009C6.65936 62.7343 7.43185 60.5343 8.85412 58.7693C9.42849 58.0502 9.3112 57.0014 8.59204 56.4269C8.55725 56.3989 8.52121 56.3725 8.48413 56.3477C3.13816 52.7511 1.71985 45.5018 5.31626 40.1556C6.1577 38.905 7.23331 37.8292 8.48413 36.988C9.24703 36.4732 9.44828 35.4372 8.93329 34.6743C8.90829 34.6372 8.88183 34.6013 8.85412 34.5663C7.43185 32.8014 6.65936 30.6014 6.66582 28.3348C6.67124 22.8142 11.1451 18.3403 16.6657 18.3349L17.0973 18.3582C17.6363 18.3851 18.1536 18.1437 18.479 17.7132C18.8102 17.2883 18.914 16.7287 18.7573 16.2133C17.1961 10.9158 20.225 5.35572 25.5226 3.79449C30.2319 2.40659 35.2521 4.64281 37.3704 9.07171C37.3704 9.08837 37.3704 9.10504 37.3587 9.12171C37.151 9.74649 36.9904 10.3861 36.8787 11.035C36.8587 11.1467 36.8437 11.26 36.827 11.3683C36.6277 12.5987 36.6125 13.8518 36.782 15.0866C30.0663 15.8818 25.0051 21.5719 24.9989 28.3348C24.9906 30.7749 25.6618 33.1693 26.9372 35.2497C26.9072 35.2763 26.8822 35.3047 26.8522 35.3313L19.094 27.5731C18.4319 26.9337 17.3767 26.9521 16.7373 27.6141C16.1136 28.26 16.1136 29.2839 16.7373 29.9297L24.5906 37.783C19.9192 44.1166 20.9442 52.9848 26.9372 58.086C26.2941 59.1349 25.8024 60.2693 25.4772 61.4559L19.5106 55.4894C18.8486 54.8498 17.7936 54.8681 17.154 55.5302C16.5303 56.176 16.5303 57.2 17.154 57.846L25.0356 65.7275C25.0489 65.9592 25.0522 66.1925 25.0772 66.4192C25.0939 66.5759 25.1255 66.7259 25.1472 66.8792C25.1905 67.1875 25.2339 67.4942 25.2989 67.7959C25.3372 67.9759 25.3905 68.1492 25.4355 68.3258C25.5039 68.5925 25.5722 68.8608 25.6572 69.1208C25.7172 69.3058 25.7889 69.4825 25.8572 69.6642C25.9489 69.9075 26.0405 70.1525 26.1472 70.3891C26.2272 70.5691 26.3139 70.7441 26.4022 70.9191C26.5155 71.1475 26.6322 71.3725 26.7572 71.5858C26.8555 71.7525 26.9605 71.9191 27.0672 72.0858C27.2005 72.2975 27.3372 72.5041 27.4822 72.7058C27.5972 72.8724 27.7172 73.0274 27.8405 73.1841C27.9922 73.3808 28.1505 73.5691 28.3138 73.7558C28.4455 73.9058 28.5788 74.0541 28.7155 74.1974C28.8822 74.3774 29.0672 74.5491 29.2505 74.7191C29.3422 74.8057 29.4272 74.9024 29.5222 74.9857H16.6657ZM48.3319 96.6671H29.9988V78.334H48.3319V96.6671ZM49.9985 21.6682C49.0781 21.6682 48.3319 22.4144 48.3319 23.3348V35.1447L40.7603 27.5731C40.0983 26.9337 39.0431 26.9521 38.4037 27.6141C37.7799 28.26 37.7799 29.2839 38.4037 29.9297L48.3319 39.8579V62.6443L41.177 55.4894C40.5149 54.8498 39.4599 54.8681 38.8204 55.5302C38.1966 56.176 38.1966 57.2 38.8204 57.846L48.3319 67.3575V75.0007H38.332C32.8115 74.9953 28.3376 70.5214 28.3322 65.0009C28.3257 62.7343 29.0982 60.5343 30.5205 58.7693C31.0948 58.0502 30.9776 57.0014 30.2584 56.4269C30.2236 56.3989 30.1876 56.3725 30.1505 56.3477C24.8045 52.7511 23.3862 45.5018 26.9826 40.1556C27.8241 38.905 28.8997 37.8292 30.1505 36.988C30.9134 36.4732 31.1146 35.4372 30.5996 34.6743C30.5746 34.6372 30.5482 34.6013 30.5205 34.5663C29.0982 32.8014 28.3257 30.6014 28.3322 28.3348C28.3376 22.8142 32.8115 18.3403 38.332 18.3349L38.7637 18.3582C39.3033 18.3882 39.8218 18.1462 40.1453 17.7132C40.4766 17.2883 40.5803 16.7287 40.4237 16.2133C40.1428 15.2795 39.9995 14.31 39.9987 13.335C39.9995 12.7198 40.0583 12.106 40.1737 11.5017C40.1737 11.4783 40.1737 11.4533 40.1837 11.43C40.3045 10.8283 40.4791 10.2388 40.7053 9.66836C42.2101 5.85029 45.8946 3.33929 49.9985 3.33512C54.1024 3.33929 57.7869 5.85029 59.2917 9.66836C59.5186 10.2425 59.6932 10.8361 59.8134 11.4417C59.8134 11.465 59.8134 11.49 59.8234 11.5133C59.9382 12.1137 59.9967 12.7237 59.9984 13.335C59.9975 14.31 59.8542 15.2795 59.5734 16.2133C59.4167 16.7287 59.5205 17.2883 59.8517 17.7132C60.1765 18.1445 60.6942 18.3862 61.2334 18.3582L61.665 18.3349C67.1856 18.3403 71.6595 22.8142 71.6649 28.3348C71.6713 30.6014 70.8988 32.8014 69.4766 34.5663C68.9022 35.2855 69.0195 36.3342 69.7387 36.9088C69.7734 36.9367 69.8095 36.9632 69.8466 36.988C75.1925 40.5846 76.6108 47.8339 73.0142 53.18C72.1728 54.4306 71.0972 55.5065 69.8466 56.3477C69.0837 56.8625 68.8824 57.8985 69.3974 58.6614C69.4224 58.6985 69.4489 58.7343 69.4766 58.7693C70.8988 60.5343 71.6713 62.7343 71.6649 65.0009C71.6595 70.5214 67.1856 74.9953 61.665 75.0007H51.6652V52.2427C51.7895 52.1813 51.9056 52.104 52.0102 52.0127L62.8433 41.1796C63.4829 40.5175 63.4646 39.4625 62.8025 38.8229C62.1567 38.1992 61.1327 38.1992 60.4867 38.8229L51.6652 47.6445V23.3348C51.6652 22.4142 50.9189 21.6682 49.9985 21.6682ZM69.9982 96.6671H51.6652V78.334H69.9982V96.6671ZM91.0635 58.6614C91.0885 58.6985 91.115 58.7343 91.1427 58.7693C92.565 60.5343 93.3375 62.7343 93.331 65.0009C93.3256 70.5214 88.8517 74.9953 83.3312 75.0007H70.4749C70.5699 74.9174 70.6549 74.8207 70.7466 74.7341C70.9299 74.5674 71.1082 74.3924 71.2815 74.2124C71.4182 74.0691 71.5515 73.9208 71.6832 73.7708C71.8499 73.5841 72.0049 73.3958 72.1565 73.1991C72.2799 73.0424 72.3999 72.8841 72.5149 72.7208C72.6599 72.5191 72.7965 72.3125 72.9299 72.1008C73.0365 71.9341 73.1415 71.7675 73.2399 71.6008C73.3648 71.3808 73.4815 71.1558 73.5948 70.9341C73.6815 70.7591 73.7615 70.5841 73.8498 70.4041C73.9565 70.1675 74.0482 69.9225 74.1398 69.6792C74.2082 69.4975 74.2798 69.3208 74.3398 69.1358C74.4248 68.8758 74.4932 68.6075 74.5615 68.3408C74.6065 68.1642 74.6598 67.9909 74.6982 67.8109C74.7632 67.5092 74.8065 67.2025 74.8498 66.8942C74.8715 66.7409 74.9032 66.5909 74.9198 66.4342C74.9717 65.9582 74.9979 65.4796 74.9982 65.0009C75.0065 62.5607 74.3353 60.1664 73.0599 58.086C76.2054 55.3992 78.0992 51.5303 78.2914 47.3978L84.5097 41.1796C85.1493 40.5175 85.1309 39.4625 84.4688 38.8229C83.823 38.1992 82.7991 38.1992 82.1531 38.8229L77.8848 43.0912C77.1385 40.0385 75.4504 37.298 73.0599 35.258C74.3367 33.1753 75.0079 30.7778 74.9982 28.3348C74.9894 21.574 69.9289 15.8864 63.215 15.0916C63.3829 13.8566 63.366 12.6033 63.165 11.3733C63.1483 11.26 63.1333 11.1467 63.1133 11.04C63.0017 10.3911 62.841 9.75149 62.6333 9.12671C62.6333 9.11004 62.6333 9.09337 62.6217 9.07671C65.0048 4.09449 70.9753 1.98743 75.9575 4.37052C80.3864 6.48883 82.6224 11.5092 81.2347 16.2183C81.0781 16.7337 81.1818 17.2933 81.5131 17.7182C81.8385 18.1487 82.3558 18.3901 82.8947 18.3632L83.3314 18.3349C88.8519 18.3403 93.3258 22.8142 93.3312 28.3348C93.3377 30.6014 92.5652 32.8014 91.1429 34.5663C90.5686 35.2855 90.6858 36.3342 91.405 36.9088C91.4398 36.9367 91.4758 36.9632 91.5129 36.988C96.8589 40.5846 98.2772 47.8339 94.6806 53.18C93.8391 54.4306 92.7635 55.5065 91.5129 56.3477C90.7498 56.8625 90.5488 57.8985 91.0635 58.6614Z" fill="#3C78E8"/>
</svg>
