<?xml version="1.0" encoding="utf-8"?><svg xmlns="http://www.w3.org/2000/svg" xmlns:xlink="http://www.w3.org/1999/xlink" width="1920" height="867" preserveAspectRatio="xMidYMid" viewBox="0 0 1920 867" style="z-index:1;margin-right:-2px;display:block;background-repeat-y:initial;background-repeat-x:initial;background-color:rgb(241, 242, 243);animation-play-state:paused" ><g transform="" style="animation-play-state:paused" ><linearGradient id="lg-0.6598090755667414" x1="0" x2="1" y1="0" y2="0" style="animation-play-state:paused" ><stop stop-color="#3b4368" offset="0" style="animation-play-state:paused" ></stop>

  
<stop stop-color="#191d3a" offset="1" style="animation-play-state:paused" ></stop></linearGradient>
<path fill="url(#lg-0.6598090755667414)" opacity="0.4" d="M 0 0 L 0 553.495 Q 192 419.63 384 377.828 T 768 192.004 T 1152 70.1098 T 1536 -215.723 T 1920 -304.518 L 1920 0 Z" style="opacity:0.4;animation-play-state:paused" ></path>
<path fill="url(#lg-0.6598090755667414)" opacity="0.4" d="M 0 0 L 0 593.751 Q 192 341.311 384 317.697 T 768 269.581 T 1152 48.3188 T 1536 -98.9745 T 1920 -254.2 L 1920 0 Z" style="opacity:0.4;animation-play-state:paused" ></path>
<path fill="url(#lg-0.6598090755667414)" opacity="0.4" d="M 0 0 L 0 494.085 Q 192 363.535 384 334.908 T 768 223.089 T 1152 -30.943 T 1536 -194.143 T 1920 -393.644 L 1920 0 Z" style="opacity:0.4;animation-play-state:paused" ></path>
<path fill="url(#lg-0.6598090755667414)" opacity="0.4" d="M 0 0 L 0 586.17 Q 192 354.855 384 318.667 T 768 282.728 T 1152 83.305 T 1536 -119.128 T 1920 -243.562 L 1920 0 Z" style="opacity:0.4;animation-play-state:paused" ></path>
<path fill="url(#lg-0.6598090755667414)" opacity="0.4" d="M 0 0 L 0 558.643 Q 192 396.039 384 374.029 T 768 219.467 T 1152 70.2945 T 1536 -170.859 T 1920 -293.017 L 1920 0 Z" style="opacity:0.4;animation-play-state:paused" ></path></g></svg>