<svg width="90" height="100" viewBox="0 0 90 100" fill="none" xmlns="http://www.w3.org/2000/svg">
<path d="M71.2934 71.0279L62.0102 67.9342L58.6775 61.2688C61.6799 58.2129 63.7645 54.1695 64.4674 49.9521L64.883 47.4609H68.4375C71.6684 47.4609 74.2969 44.8324 74.2969 41.6016V29.2969C74.2969 13.1426 61.1543 0 45 0C28.8043 0 15.7031 13.1049 15.7031 29.2969V41.6016C15.7031 44.1477 17.3361 46.3187 19.6094 47.125V49.4141C19.6094 52.6449 22.2379 55.2734 25.4688 55.2734H27.184C28.0307 57.1127 29.1266 58.8162 30.4602 60.3465C30.7367 60.6645 31.0252 60.9727 31.3207 61.2725L27.9898 67.9342L18.7064 71.0281C7.9125 74.6273 0.078125 85.9904 0.078125 98.0469C0.078125 99.1256 0.952539 100 2.03125 100H87.9688C89.0473 100 89.9219 99.1256 89.9219 98.0469C89.9219 85.9904 82.0877 74.6273 71.2934 71.0279ZM70.3906 41.6016C70.3906 42.6785 69.5145 43.5547 68.4375 43.5547H65.4566C65.9531 39.709 66.284 35.6166 66.417 31.5859C66.4209 31.4723 66.424 31.3617 66.4275 31.25H70.3906V41.6016ZM21.5625 43.5547C20.4855 43.5547 19.6094 42.6785 19.6094 41.6016V31.25H23.5738C23.5803 31.4537 23.5871 31.6584 23.5947 31.8645C23.5949 31.8715 23.5953 31.8783 23.5955 31.8854C23.5955 31.8859 23.5955 31.8865 23.5955 31.8871C23.7322 35.8074 24.0588 39.7936 24.5439 43.5545H21.5625V43.5547ZM25.4688 51.3672C24.3918 51.3672 23.5156 50.491 23.5156 49.4141V47.4609H25.1168L25.5324 49.9529C25.6117 50.4266 25.7092 50.8984 25.8219 51.3672H25.4688ZM23.5189 27.3438H19.6836C20.6729 14.2537 31.5971 3.90625 45 3.90625C58.3434 3.90625 69.3156 14.2523 70.3162 27.3438H66.4813C66.3406 16.5572 57.5568 7.8125 46.7482 7.8125H43.2521C32.4437 7.8125 23.6594 16.5572 23.5189 27.3438ZM43.252 11.7188H46.7481C55.4998 11.7188 62.5832 18.8771 62.5781 27.6191C62.5781 28.2338 62.5732 28.7689 62.5629 29.2559C62.5629 29.2621 62.5627 29.2686 62.5627 29.275L60.1197 28.926C53.483 27.9783 47.2166 24.8451 42.4748 20.1033C42.1084 19.7371 41.6117 19.5312 41.0938 19.5312C35.8484 19.5312 30.8273 21.9211 27.5082 25.9586C28.3262 18.0057 35.0494 11.7188 43.252 11.7188ZM29.8711 51.3672C28.8934 48.1146 27.7746 38.5443 27.5273 32.4115L30.1561 28.9064C32.5703 25.6885 36.3264 23.6891 40.3219 23.4596C45.5791 28.4627 52.3803 31.7666 59.5674 32.7928L62.4428 33.2037C62.2506 37.2828 61.8578 41.3762 61.2951 45.1408C61.2949 45.142 61.2947 45.1434 61.2945 45.1447C61.1156 46.3551 60.9746 47.134 60.6145 49.3096C59.5801 55.5137 54.9508 61.124 48.8396 62.652C46.3246 63.2799 43.675 63.2797 41.1613 62.652C37.3455 61.6981 33.8467 59.0578 31.5887 55.2734H35.5703C36.3766 57.5467 38.5475 59.1797 41.0938 59.1797H45C48.2373 59.1797 50.8594 56.5578 50.8594 53.3203C50.8594 50.0895 48.2309 47.4609 45 47.4609H41.0938C38.4908 47.4609 36.352 49.1422 35.567 51.3672H29.8711ZM40.9295 66.6047C42.2691 66.8869 43.635 67.0312 45 67.0312C46.0686 67.0312 47.1373 66.9418 48.1939 66.7684L44.7428 70.4182L40.9295 66.6047ZM42.0576 73.2576L35.8627 79.8088C34.1572 76.5443 32.6918 73.1469 31.4898 69.6688L33.8162 65.016L42.0576 73.2576ZM55.8527 64.3543L58.5098 69.6686C57.3059 73.1525 55.84 76.5512 54.1363 79.8117L47.5059 73.1812L55.8527 64.3543ZM39.1406 53.3203C39.1406 52.242 40.0152 51.3672 41.0938 51.3672H45C46.077 51.3672 46.9531 52.2434 46.9531 53.3203C46.9531 54.3988 46.0783 55.2734 45 55.2734H41.0938C40.0168 55.2734 39.1406 54.3973 39.1406 53.3203ZM4.0625 96.0938C4.83652 86.4182 11.2758 77.6236 19.9418 74.7338L28.1633 71.9939C29.6695 76.159 31.5355 80.2072 33.7225 84.0525C33.7262 84.0592 33.7297 84.0658 33.7334 84.0723C33.7334 84.0725 33.7336 84.0725 33.7336 84.0727C35.3314 86.883 37.1299 89.6293 39.0797 92.2365L41.4824 96.0938H4.0625ZM45 94.3527L42.3512 90.1002C42.3215 90.0525 42.2898 90.0062 42.2562 89.9613C40.6746 87.8516 39.1992 85.6451 37.8555 83.3867L44.8209 76.0207L52.1604 83.3602C50.8076 85.635 49.3271 87.8506 47.7441 89.9609C47.6484 90.0885 47.7842 89.8875 45 94.3527ZM48.5176 96.0938L50.9201 92.2367C52.8785 89.6195 54.6898 86.8512 56.3037 84.0078C56.3135 83.9906 56.3227 83.973 56.3324 83.9559C56.3336 83.9537 56.3348 83.9518 56.3359 83.9496C58.4951 80.141 60.3416 76.1279 61.8367 71.9939L70.058 74.7338C78.7242 77.6236 85.1635 86.4182 85.9375 96.0938H48.5176Z" fill="#3C78E8"/>
</svg>
